# xmcd
#
# Track frame offsets: 
#        150
#        13107
#        25042
#        37110
#        48990
#        61852
#        75227
#        88665
#        101900
#        114025
#        126600
#        137837
#        148290
#        161320
#        173765
#        187295
#        197547
#        212190
#        225350
#        238335
#        248895
#
# Disc length: 3433 seconds
#
# Revision: 1
# Processed by: cddbd v1.5.2PL0 Copyright (c) Steve Scherf et al.
# Submitted via: ExactAudioCopyFreeDBPlugin 1.0
#
DISCID=250d6715
DTITLE=Amos Milburn - The Complete Aladdin Recordings of Amos Milburn 
DTITLE=[Mosaic box set]
DYEAR=1994
DGENRE=Rhythm and Blues
TTITLE0=Anybody's Blues
TTITLE1=It Took a Long, Long Time
TTITLE2=Wolf on the River
TTITLE3=I Still Love You
TTITLE4=Frank's Blues
TTITLE5=Empty Arms Blues
TTITLE6=Bewildered
TTITLE7=A and M Blues
TTITLE8=In the Middle of the Night
TTITLE9=Won't You Kinda Think it Over
TTITLE10=Jitterbug Fashion Parade
TTITLE11=Where Are You
TTITLE12=My Luck is Bound to Change
TTITLE13=Roomin' House Boogie
TTITLE14=Walkin' Blues
TTITLE15=Blue and Lonesome
TTITLE16=Bow-Wow!
TTITLE17=Let's Make Christmas Merry, Baby
TTITLE18=Drifting Blues
TTITLE19=Real Pretty Mama
TTITLE20=Untitled Boogie
EXTD=
EXTT0=
EXTT1=
EXTT2=
EXTT3=
EXTT4=
EXTT5=
EXTT6=
EXTT7=
EXTT8=
EXTT9=
EXTT10=
EXTT11=
EXTT12=
EXTT13=
EXTT14=
EXTT15=
EXTT16=
EXTT17=
EXTT18=
EXTT19=
EXTT20=
PLAYORDER=
